<svg xmlns="http://www.w3.org/2000/svg" xmlns:xlink="http://www.w3.org/1999/xlink" width="400" height="400"><defs><path id="a" fill="#000" d="M0 0h9v9H0z"/></defs><path fill="#fff" d="M0 0h400v400H0z"/><use x="15" y="15" xlink:href="#a"/><use x="24" y="15" xlink:href="#a"/><use x="33" y="15" xlink:href="#a"/><use x="42" y="15" xlink:href="#a"/><use x="51" y="15" xlink:href="#a"/><use x="60" y="15" xlink:href="#a"/><use x="69" y="15" xlink:href="#a"/><use x="87" y="15" xlink:href="#a"/><use x="114" y="15" xlink:href="#a"/><use x="141" y="15" xlink:href="#a"/><use x="150" y="15" xlink:href="#a"/><use x="159" y="15" xlink:href="#a"/><use x="177" y="15" xlink:href="#a"/><use x="186" y="15" xlink:href="#a"/><use x="195" y="15" xlink:href="#a"/><use x="231" y="15" xlink:href="#a"/><use x="240" y="15" xlink:href="#a"/><use x="249" y="15" xlink:href="#a"/><use x="285" y="15" xlink:href="#a"/><use x="294" y="15" xlink:href="#a"/><use x="321" y="15" xlink:href="#a"/><use x="330" y="15" xlink:href="#a"/><use x="339" y="15" xlink:href="#a"/><use x="348" y="15" xlink:href="#a"/><use x="357" y="15" xlink:href="#a"/><use x="366" y="15" xlink:href="#a"/><use x="375" y="15" xlink:href="#a"/><use x="15" y="24" xlink:href="#a"/><use x="69" y="24" xlink:href="#a"/><use x="87" y="24" xlink:href="#a"/><use x="105" y="24" xlink:href="#a"/><use x="123" y="24" xlink:href="#a"/><use x="141" y="24" xlink:href="#a"/><use x="159" y="24" xlink:href="#a"/><use x="177" y="24" xlink:href="#a"/><use x="195" y="24" xlink:href="#a"/><use x="204" y="24" xlink:href="#a"/><use x="213" y="24" xlink:href="#a"/><use x="240" y="24" xlink:href="#a"/><use x="249" y="24" xlink:href="#a"/><use x="258" y="24" xlink:href="#a"/><use x="267" y="24" xlink:href="#a"/><use x="285" y="24" xlink:href="#a"/><use x="303" y="24" xlink:href="#a"/><use x="321" y="24" xlink:href="#a"/><use x="375" y="24" xlink:href="#a"/><use x="15" y="33" xlink:href="#a"/><use x="33" y="33" xlink:href="#a"/><use x="42" y="33" xlink:href="#a"/><use x="51" y="33" xlink:href="#a"/><use x="69" y="33" xlink:href="#a"/><use x="87" y="33" xlink:href="#a"/><use x="96" y="33" xlink:href="#a"/><use x="114" y="33" xlink:href="#a"/><use x="141" y="33" xlink:href="#a"/><use x="168" y="33" xlink:href="#a"/><use x="177" y="33" xlink:href="#a"/><use x="213" y="33" xlink:href="#a"/><use x="222" y="33" xlink:href="#a"/><use x="231" y="33" xlink:href="#a"/><use x="240" y="33" xlink:href="#a"/><use x="303" y="33" xlink:href="#a"/><use x="321" y="33" xlink:href="#a"/><use x="339" y="33" xlink:href="#a"/><use x="348" y="33" xlink:href="#a"/><use x="357" y="33" xlink:href="#a"/><use x="375" y="33" xlink:href="#a"/><use x="15" y="42" xlink:href="#a"/><use x="33" y="42" xlink:href="#a"/><use x="42" y="42" xlink:href="#a"/><use x="51" y="42" xlink:href="#a"/><use x="69" y="42" xlink:href="#a"/><use x="105" y="42" xlink:href="#a"/><use x="177" y="42" xlink:href="#a"/><use x="186" y="42" xlink:href="#a"/><use x="195" y="42" xlink:href="#a"/><use x="204" y="42" xlink:href="#a"/><use x="249" y="42" xlink:href="#a"/><use x="258" y="42" xlink:href="#a"/><use x="267" y="42" xlink:href="#a"/><use x="285" y="42" xlink:href="#a"/><use x="321" y="42" xlink:href="#a"/><use x="339" y="42" xlink:href="#a"/><use x="348" y="42" xlink:href="#a"/><use x="357" y="42" xlink:href="#a"/><use x="375" y="42" xlink:href="#a"/><use x="15" y="51" xlink:href="#a"/><use x="33" y="51" xlink:href="#a"/><use x="42" y="51" xlink:href="#a"/><use x="51" y="51" xlink:href="#a"/><use x="69" y="51" xlink:href="#a"/><use x="96" y="51" xlink:href="#a"/><use x="114" y="51" xlink:href="#a"/><use x="132" y="51" xlink:href="#a"/><use x="150" y="51" xlink:href="#a"/><use x="186" y="51" xlink:href="#a"/><use x="204" y="51" xlink:href="#a"/><use x="222" y="51" xlink:href="#a"/><use x="231" y="51" xlink:href="#a"/><use x="240" y="51" xlink:href="#a"/><use x="258" y="51" xlink:href="#a"/><use x="294" y="51" xlink:href="#a"/><use x="321" y="51" xlink:href="#a"/><use x="339" y="51" xlink:href="#a"/><use x="348" y="51" xlink:href="#a"/><use x="357" y="51" xlink:href="#a"/><use x="375" y="51" xlink:href="#a"/><use x="15" y="60" xlink:href="#a"/><use x="69" y="60" xlink:href="#a"/><use x="87" y="60" xlink:href="#a"/><use x="105" y="60" xlink:href="#a"/><use x="114" y="60" xlink:href="#a"/><use x="123" y="60" xlink:href="#a"/><use x="141" y="60" xlink:href="#a"/><use x="159" y="60" xlink:href="#a"/><use x="195" y="60" xlink:href="#a"/><use x="231" y="60" xlink:href="#a"/><use x="249" y="60" xlink:href="#a"/><use x="267" y="60" xlink:href="#a"/><use x="276" y="60" xlink:href="#a"/><use x="303" y="60" xlink:href="#a"/><use x="321" y="60" xlink:href="#a"/><use x="375" y="60" xlink:href="#a"/><use x="15" y="69" xlink:href="#a"/><use x="24" y="69" xlink:href="#a"/><use x="33" y="69" xlink:href="#a"/><use x="42" y="69" xlink:href="#a"/><use x="51" y="69" xlink:href="#a"/><use x="60" y="69" xlink:href="#a"/><use x="69" y="69" xlink:href="#a"/><use x="87" y="69" xlink:href="#a"/><use x="105" y="69" xlink:href="#a"/><use x="123" y="69" xlink:href="#a"/><use x="141" y="69" xlink:href="#a"/><use x="159" y="69" xlink:href="#a"/><use x="177" y="69" xlink:href="#a"/><use x="195" y="69" xlink:href="#a"/><use x="213" y="69" xlink:href="#a"/><use x="231" y="69" xlink:href="#a"/><use x="249" y="69" xlink:href="#a"/><use x="267" y="69" xlink:href="#a"/><use x="285" y="69" xlink:href="#a"/><use x="303" y="69" xlink:href="#a"/><use x="321" y="69" xlink:href="#a"/><use x="330" y="69" xlink:href="#a"/><use x="339" y="69" xlink:href="#a"/><use x="348" y="69" xlink:href="#a"/><use x="357" y="69" xlink:href="#a"/><use x="366" y="69" xlink:href="#a"/><use x="375" y="69" xlink:href="#a"/><use x="87" y="78" xlink:href="#a"/><use x="105" y="78" xlink:href="#a"/><use x="114" y="78" xlink:href="#a"/><use x="132" y="78" xlink:href="#a"/><use x="159" y="78" xlink:href="#a"/><use x="186" y="78" xlink:href="#a"/><use x="195" y="78" xlink:href="#a"/><use x="213" y="78" xlink:href="#a"/><use x="222" y="78" xlink:href="#a"/><use x="231" y="78" xlink:href="#a"/><use x="249" y="78" xlink:href="#a"/><use x="267" y="78" xlink:href="#a"/><use x="294" y="78" xlink:href="#a"/><use x="303" y="78" xlink:href="#a"/><use x="33" y="87" xlink:href="#a"/><use x="42" y="87" xlink:href="#a"/><use x="51" y="87" xlink:href="#a"/><use x="69" y="87" xlink:href="#a"/><use x="87" y="87" xlink:href="#a"/><use x="96" y="87" xlink:href="#a"/><use x="105" y="87" xlink:href="#a"/><use x="150" y="87" xlink:href="#a"/><use x="159" y="87" xlink:href="#a"/><use x="168" y="87" xlink:href="#a"/><use x="213" y="87" xlink:href="#a"/><use x="222" y="87" xlink:href="#a"/><use x="231" y="87" xlink:href="#a"/><use x="258" y="87" xlink:href="#a"/><use x="267" y="87" xlink:href="#a"/><use x="276" y="87" xlink:href="#a"/><use x="303" y="87" xlink:href="#a"/><use x="312" y="87" xlink:href="#a"/><use x="321" y="87" xlink:href="#a"/><use x="330" y="87" xlink:href="#a"/><use x="357" y="87" xlink:href="#a"/><use x="366" y="87" xlink:href="#a"/><use x="375" y="87" xlink:href="#a"/><use x="15" y="96" xlink:href="#a"/><use x="24" y="96" xlink:href="#a"/><use x="33" y="96" xlink:href="#a"/><use x="42" y="96" xlink:href="#a"/><use x="60" y="96" xlink:href="#a"/><use x="78" y="96" xlink:href="#a"/><use x="105" y="96" xlink:href="#a"/><use x="114" y="96" xlink:href="#a"/><use x="141" y="96" xlink:href="#a"/><use x="150" y="96" xlink:href="#a"/><use x="159" y="96" xlink:href="#a"/><use x="213" y="96" xlink:href="#a"/><use x="222" y="96" xlink:href="#a"/><use x="231" y="96" xlink:href="#a"/><use x="240" y="96" xlink:href="#a"/><use x="249" y="96" xlink:href="#a"/><use x="258" y="96" xlink:href="#a"/><use x="294" y="96" xlink:href="#a"/><use x="303" y="96" xlink:href="#a"/><use x="321" y="96" xlink:href="#a"/><use x="330" y="96" xlink:href="#a"/><use x="339" y="96" xlink:href="#a"/><use x="366" y="96" xlink:href="#a"/><use x="24" y="105" xlink:href="#a"/><use x="33" y="105" xlink:href="#a"/><use x="51" y="105" xlink:href="#a"/><use x="60" y="105" xlink:href="#a"/><use x="69" y="105" xlink:href="#a"/><use x="78" y="105" xlink:href="#a"/><use x="87" y="105" xlink:href="#a"/><use x="96" y="105" xlink:href="#a"/><use x="132" y="105" xlink:href="#a"/><use x="150" y="105" xlink:href="#a"/><use x="177" y="105" xlink:href="#a"/><use x="186" y="105" xlink:href="#a"/><use x="231" y="105" xlink:href="#a"/><use x="249" y="105" xlink:href="#a"/><use x="276" y="105" xlink:href="#a"/><use x="285" y="105" xlink:href="#a"/><use x="294" y="105" xlink:href="#a"/><use x="312" y="105" xlink:href="#a"/><use x="357" y="105" xlink:href="#a"/><use x="366" y="105" xlink:href="#a"/><use x="15" y="114" xlink:href="#a"/><use x="33" y="114" xlink:href="#a"/><use x="42" y="114" xlink:href="#a"/><use x="51" y="114" xlink:href="#a"/><use x="60" y="114" xlink:href="#a"/><use x="78" y="114" xlink:href="#a"/><use x="96" y="114" xlink:href="#a"/><use x="105" y="114" xlink:href="#a"/><use x="141" y="114" xlink:href="#a"/><use x="159" y="114" xlink:href="#a"/><use x="168" y="114" xlink:href="#a"/><use x="177" y="114" xlink:href="#a"/><use x="186" y="114" xlink:href="#a"/><use x="213" y="114" xlink:href="#a"/><use x="240" y="114" xlink:href="#a"/><use x="267" y="114" xlink:href="#a"/><use x="276" y="114" xlink:href="#a"/><use x="285" y="114" xlink:href="#a"/><use x="294" y="114" xlink:href="#a"/><use x="330" y="114" xlink:href="#a"/><use x="339" y="114" xlink:href="#a"/><use x="357" y="114" xlink:href="#a"/><use x="366" y="114" xlink:href="#a"/><use x="15" y="123" xlink:href="#a"/><use x="51" y="123" xlink:href="#a"/><use x="69" y="123" xlink:href="#a"/><use x="87" y="123" xlink:href="#a"/><use x="96" y="123" xlink:href="#a"/><use x="114" y="123" xlink:href="#a"/><use x="123" y="123" xlink:href="#a"/><use x="132" y="123" xlink:href="#a"/><use x="141" y="123" xlink:href="#a"/><use x="150" y="123" xlink:href="#a"/><use x="168" y="123" xlink:href="#a"/><use x="186" y="123" xlink:href="#a"/><use x="204" y="123" xlink:href="#a"/><use x="222" y="123" xlink:href="#a"/><use x="231" y="123" xlink:href="#a"/><use x="249" y="123" xlink:href="#a"/><use x="258" y="123" xlink:href="#a"/><use x="267" y="123" xlink:href="#a"/><use x="276" y="123" xlink:href="#a"/><use x="312" y="123" xlink:href="#a"/><use x="330" y="123" xlink:href="#a"/><use x="348" y="123" xlink:href="#a"/><use x="357" y="123" xlink:href="#a"/><use x="366" y="123" xlink:href="#a"/><use x="24" y="132" xlink:href="#a"/><use x="33" y="132" xlink:href="#a"/><use x="42" y="132" xlink:href="#a"/><use x="96" y="132" xlink:href="#a"/><use x="132" y="132" xlink:href="#a"/><use x="168" y="132" xlink:href="#a"/><use x="186" y="132" xlink:href="#a"/><use x="213" y="132" xlink:href="#a"/><use x="231" y="132" xlink:href="#a"/><use x="240" y="132" xlink:href="#a"/><use x="258" y="132" xlink:href="#a"/><use x="303" y="132" xlink:href="#a"/><use x="339" y="132" xlink:href="#a"/><use x="348" y="132" xlink:href="#a"/><use x="366" y="132" xlink:href="#a"/><use x="15" y="141" xlink:href="#a"/><use x="42" y="141" xlink:href="#a"/><use x="69" y="141" xlink:href="#a"/><use x="87" y="141" xlink:href="#a"/><use x="96" y="141" xlink:href="#a"/><use x="114" y="141" xlink:href="#a"/><use x="141" y="141" xlink:href="#a"/><use x="159" y="141" xlink:href="#a"/><use x="177" y="141" xlink:href="#a"/><use x="204" y="141" xlink:href="#a"/><use x="222" y="141" xlink:href="#a"/><use x="231" y="141" xlink:href="#a"/><use x="240" y="141" xlink:href="#a"/><use x="258" y="141" xlink:href="#a"/><use x="267" y="141" xlink:href="#a"/><use x="276" y="141" xlink:href="#a"/><use x="294" y="141" xlink:href="#a"/><use x="348" y="141" xlink:href="#a"/><use x="357" y="141" xlink:href="#a"/><use x="375" y="141" xlink:href="#a"/><use x="15" y="150" xlink:href="#a"/><use x="33" y="150" xlink:href="#a"/><use x="42" y="150" xlink:href="#a"/><use x="87" y="150" xlink:href="#a"/><use x="105" y="150" xlink:href="#a"/><use x="114" y="150" xlink:href="#a"/><use x="123" y="150" xlink:href="#a"/><use x="132" y="150" xlink:href="#a"/><use x="141" y="150" xlink:href="#a"/><use x="159" y="150" xlink:href="#a"/><use x="195" y="150" xlink:href="#a"/><use x="204" y="150" xlink:href="#a"/><use x="213" y="150" xlink:href="#a"/><use x="222" y="150" xlink:href="#a"/><use x="231" y="150" xlink:href="#a"/><use x="240" y="150" xlink:href="#a"/><use x="249" y="150" xlink:href="#a"/><use x="258" y="150" xlink:href="#a"/><use x="294" y="150" xlink:href="#a"/><use x="303" y="150" xlink:href="#a"/><use x="321" y="150" xlink:href="#a"/><use x="330" y="150" xlink:href="#a"/><use x="339" y="150" xlink:href="#a"/><use x="366" y="150" xlink:href="#a"/><use x="375" y="150" xlink:href="#a"/><use x="15" y="159" xlink:href="#a"/><use x="24" y="159" xlink:href="#a"/><use x="51" y="159" xlink:href="#a"/><use x="60" y="159" xlink:href="#a"/><use x="69" y="159" xlink:href="#a"/><use x="96" y="159" xlink:href="#a"/><use x="123" y="159" xlink:href="#a"/><use x="132" y="159" xlink:href="#a"/><use x="150" y="159" xlink:href="#a"/><use x="177" y="159" xlink:href="#a"/><use x="195" y="159" xlink:href="#a"/><use x="213" y="159" xlink:href="#a"/><use x="222" y="159" xlink:href="#a"/><use x="231" y="159" xlink:href="#a"/><use x="240" y="159" xlink:href="#a"/><use x="258" y="159" xlink:href="#a"/><use x="285" y="159" xlink:href="#a"/><use x="294" y="159" xlink:href="#a"/><use x="312" y="159" xlink:href="#a"/><use x="339" y="159" xlink:href="#a"/><use x="348" y="159" xlink:href="#a"/><use x="24" y="168" xlink:href="#a"/><use x="60" y="168" xlink:href="#a"/><use x="96" y="168" xlink:href="#a"/><use x="105" y="168" xlink:href="#a"/><use x="114" y="168" xlink:href="#a"/><use x="132" y="168" xlink:href="#a"/><use x="141" y="168" xlink:href="#a"/><use x="150" y="168" xlink:href="#a"/><use x="186" y="168" xlink:href="#a"/><use x="231" y="168" xlink:href="#a"/><use x="258" y="168" xlink:href="#a"/><use x="276" y="168" xlink:href="#a"/><use x="294" y="168" xlink:href="#a"/><use x="312" y="168" xlink:href="#a"/><use x="330" y="168" xlink:href="#a"/><use x="339" y="168" xlink:href="#a"/><use x="366" y="168" xlink:href="#a"/><use x="375" y="168" xlink:href="#a"/><use x="15" y="177" xlink:href="#a"/><use x="24" y="177" xlink:href="#a"/><use x="42" y="177" xlink:href="#a"/><use x="51" y="177" xlink:href="#a"/><use x="69" y="177" xlink:href="#a"/><use x="123" y="177" xlink:href="#a"/><use x="132" y="177" xlink:href="#a"/><use x="150" y="177" xlink:href="#a"/><use x="159" y="177" xlink:href="#a"/><use x="186" y="177" xlink:href="#a"/><use x="213" y="177" xlink:href="#a"/><use x="222" y="177" xlink:href="#a"/><use x="240" y="177" xlink:href="#a"/><use x="267" y="177" xlink:href="#a"/><use x="276" y="177" xlink:href="#a"/><use x="303" y="177" xlink:href="#a"/><use x="330" y="177" xlink:href="#a"/><use x="348" y="177" xlink:href="#a"/><use x="357" y="177" xlink:href="#a"/><use x="375" y="177" xlink:href="#a"/><use x="78" y="186" xlink:href="#a"/><use x="105" y="186" xlink:href="#a"/><use x="114" y="186" xlink:href="#a"/><use x="123" y="186" xlink:href="#a"/><use x="141" y="186" xlink:href="#a"/><use x="168" y="186" xlink:href="#a"/><use x="177" y="186" xlink:href="#a"/><use x="186" y="186" xlink:href="#a"/><use x="195" y="186" xlink:href="#a"/><use x="204" y="186" xlink:href="#a"/><use x="213" y="186" xlink:href="#a"/><use x="231" y="186" xlink:href="#a"/><use x="249" y="186" xlink:href="#a"/><use x="267" y="186" xlink:href="#a"/><use x="276" y="186" xlink:href="#a"/><use x="285" y="186" xlink:href="#a"/><use x="294" y="186" xlink:href="#a"/><use x="303" y="186" xlink:href="#a"/><use x="312" y="186" xlink:href="#a"/><use x="321" y="186" xlink:href="#a"/><use x="330" y="186" xlink:href="#a"/><use x="339" y="186" xlink:href="#a"/><use x="348" y="186" xlink:href="#a"/><use x="366" y="186" xlink:href="#a"/><use x="375" y="186" xlink:href="#a"/><use x="15" y="195" xlink:href="#a"/><use x="33" y="195" xlink:href="#a"/><use x="42" y="195" xlink:href="#a"/><use x="51" y="195" xlink:href="#a"/><use x="69" y="195" xlink:href="#a"/><use x="78" y="195" xlink:href="#a"/><use x="87" y="195" xlink:href="#a"/><use x="114" y="195" xlink:href="#a"/><use x="123" y="195" xlink:href="#a"/><use x="150" y="195" xlink:href="#a"/><use x="186" y="195" xlink:href="#a"/><use x="195" y="195" xlink:href="#a"/><use x="204" y="195" xlink:href="#a"/><use x="213" y="195" xlink:href="#a"/><use x="231" y="195" xlink:href="#a"/><use x="258" y="195" xlink:href="#a"/><use x="303" y="195" xlink:href="#a"/><use x="321" y="195" xlink:href="#a"/><use x="339" y="195" xlink:href="#a"/><use x="348" y="195" xlink:href="#a"/><use x="357" y="195" xlink:href="#a"/><use x="366" y="195" xlink:href="#a"/><use x="42" y="204" xlink:href="#a"/><use x="51" y="204" xlink:href="#a"/><use x="60" y="204" xlink:href="#a"/><use x="78" y="204" xlink:href="#a"/><use x="96" y="204" xlink:href="#a"/><use x="114" y="204" xlink:href="#a"/><use x="123" y="204" xlink:href="#a"/><use x="132" y="204" xlink:href="#a"/><use x="141" y="204" xlink:href="#a"/><use x="159" y="204" xlink:href="#a"/><use x="177" y="204" xlink:href="#a"/><use x="240" y="204" xlink:href="#a"/><use x="285" y="204" xlink:href="#a"/><use x="294" y="204" xlink:href="#a"/><use x="303" y="204" xlink:href="#a"/><use x="321" y="204" xlink:href="#a"/><use x="330" y="204" xlink:href="#a"/><use x="348" y="204" xlink:href="#a"/><use x="357" y="204" xlink:href="#a"/><use x="366" y="204" xlink:href="#a"/><use x="60" y="213" xlink:href="#a"/><use x="69" y="213" xlink:href="#a"/><use x="123" y="213" xlink:href="#a"/><use x="132" y="213" xlink:href="#a"/><use x="150" y="213" xlink:href="#a"/><use x="159" y="213" xlink:href="#a"/><use x="195" y="213" xlink:href="#a"/><use x="222" y="213" xlink:href="#a"/><use x="231" y="213" xlink:href="#a"/><use x="240" y="213" xlink:href="#a"/><use x="276" y="213" xlink:href="#a"/><use x="294" y="213" xlink:href="#a"/><use x="357" y="213" xlink:href="#a"/><use x="24" y="222" xlink:href="#a"/><use x="33" y="222" xlink:href="#a"/><use x="42" y="222" xlink:href="#a"/><use x="87" y="222" xlink:href="#a"/><use x="114" y="222" xlink:href="#a"/><use x="123" y="222" xlink:href="#a"/><use x="159" y="222" xlink:href="#a"/><use x="177" y="222" xlink:href="#a"/><use x="186" y="222" xlink:href="#a"/><use x="222" y="222" xlink:href="#a"/><use x="240" y="222" xlink:href="#a"/><use x="267" y="222" xlink:href="#a"/><use x="285" y="222" xlink:href="#a"/><use x="294" y="222" xlink:href="#a"/><use x="312" y="222" xlink:href="#a"/><use x="330" y="222" xlink:href="#a"/><use x="348" y="222" xlink:href="#a"/><use x="357" y="222" xlink:href="#a"/><use x="366" y="222" xlink:href="#a"/><use x="375" y="222" xlink:href="#a"/><use x="24" y="231" xlink:href="#a"/><use x="42" y="231" xlink:href="#a"/><use x="69" y="231" xlink:href="#a"/><use x="78" y="231" xlink:href="#a"/><use x="87" y="231" xlink:href="#a"/><use x="96" y="231" xlink:href="#a"/><use x="150" y="231" xlink:href="#a"/><use x="159" y="231" xlink:href="#a"/><use x="177" y="231" xlink:href="#a"/><use x="222" y="231" xlink:href="#a"/><use x="231" y="231" xlink:href="#a"/><use x="258" y="231" xlink:href="#a"/><use x="303" y="231" xlink:href="#a"/><use x="321" y="231" xlink:href="#a"/><use x="339" y="231" xlink:href="#a"/><use x="366" y="231" xlink:href="#a"/><use x="375" y="231" xlink:href="#a"/><use x="15" y="240" xlink:href="#a"/><use x="24" y="240" xlink:href="#a"/><use x="87" y="240" xlink:href="#a"/><use x="123" y="240" xlink:href="#a"/><use x="150" y="240" xlink:href="#a"/><use x="159" y="240" xlink:href="#a"/><use x="168" y="240" xlink:href="#a"/><use x="213" y="240" xlink:href="#a"/><use x="222" y="240" xlink:href="#a"/><use x="231" y="240" xlink:href="#a"/><use x="258" y="240" xlink:href="#a"/><use x="294" y="240" xlink:href="#a"/><use x="303" y="240" xlink:href="#a"/><use x="312" y="240" xlink:href="#a"/><use x="321" y="240" xlink:href="#a"/><use x="339" y="240" xlink:href="#a"/><use x="348" y="240" xlink:href="#a"/><use x="366" y="240" xlink:href="#a"/><use x="24" y="249" xlink:href="#a"/><use x="42" y="249" xlink:href="#a"/><use x="60" y="249" xlink:href="#a"/><use x="69" y="249" xlink:href="#a"/><use x="87" y="249" xlink:href="#a"/><use x="123" y="249" xlink:href="#a"/><use x="141" y="249" xlink:href="#a"/><use x="159" y="249" xlink:href="#a"/><use x="177" y="249" xlink:href="#a"/><use x="186" y="249" xlink:href="#a"/><use x="222" y="249" xlink:href="#a"/><use x="231" y="249" xlink:href="#a"/><use x="267" y="249" xlink:href="#a"/><use x="276" y="249" xlink:href="#a"/><use x="294" y="249" xlink:href="#a"/><use x="321" y="249" xlink:href="#a"/><use x="330" y="249" xlink:href="#a"/><use x="339" y="249" xlink:href="#a"/><use x="357" y="249" xlink:href="#a"/><use x="24" y="258" xlink:href="#a"/><use x="60" y="258" xlink:href="#a"/><use x="78" y="258" xlink:href="#a"/><use x="96" y="258" xlink:href="#a"/><use x="123" y="258" xlink:href="#a"/><use x="132" y="258" xlink:href="#a"/><use x="141" y="258" xlink:href="#a"/><use x="150" y="258" xlink:href="#a"/><use x="159" y="258" xlink:href="#a"/><use x="195" y="258" xlink:href="#a"/><use x="267" y="258" xlink:href="#a"/><use x="276" y="258" xlink:href="#a"/><use x="294" y="258" xlink:href="#a"/><use x="312" y="258" xlink:href="#a"/><use x="321" y="258" xlink:href="#a"/><use x="330" y="258" xlink:href="#a"/><use x="339" y="258" xlink:href="#a"/><use x="357" y="258" xlink:href="#a"/><use x="366" y="258" xlink:href="#a"/><use x="375" y="258" xlink:href="#a"/><use x="33" y="267" xlink:href="#a"/><use x="42" y="267" xlink:href="#a"/><use x="51" y="267" xlink:href="#a"/><use x="60" y="267" xlink:href="#a"/><use x="69" y="267" xlink:href="#a"/><use x="78" y="267" xlink:href="#a"/><use x="105" y="267" xlink:href="#a"/><use x="132" y="267" xlink:href="#a"/><use x="141" y="267" xlink:href="#a"/><use x="159" y="267" xlink:href="#a"/><use x="168" y="267" xlink:href="#a"/><use x="177" y="267" xlink:href="#a"/><use x="195" y="267" xlink:href="#a"/><use x="213" y="267" xlink:href="#a"/><use x="222" y="267" xlink:href="#a"/><use x="231" y="267" xlink:href="#a"/><use x="249" y="267" xlink:href="#a"/><use x="258" y="267" xlink:href="#a"/><use x="276" y="267" xlink:href="#a"/><use x="285" y="267" xlink:href="#a"/><use x="303" y="267" xlink:href="#a"/><use x="321" y="267" xlink:href="#a"/><use x="15" y="276" xlink:href="#a"/><use x="33" y="276" xlink:href="#a"/><use x="42" y="276" xlink:href="#a"/><use x="51" y="276" xlink:href="#a"/><use x="60" y="276" xlink:href="#a"/><use x="96" y="276" xlink:href="#a"/><use x="105" y="276" xlink:href="#a"/><use x="150" y="276" xlink:href="#a"/><use x="159" y="276" xlink:href="#a"/><use x="168" y="276" xlink:href="#a"/><use x="186" y="276" xlink:href="#a"/><use x="240" y="276" xlink:href="#a"/><use x="258" y="276" xlink:href="#a"/><use x="267" y="276" xlink:href="#a"/><use x="285" y="276" xlink:href="#a"/><use x="312" y="276" xlink:href="#a"/><use x="330" y="276" xlink:href="#a"/><use x="348" y="276" xlink:href="#a"/><use x="366" y="276" xlink:href="#a"/><use x="375" y="276" xlink:href="#a"/><use x="15" y="285" xlink:href="#a"/><use x="33" y="285" xlink:href="#a"/><use x="42" y="285" xlink:href="#a"/><use x="51" y="285" xlink:href="#a"/><use x="60" y="285" xlink:href="#a"/><use x="69" y="285" xlink:href="#a"/><use x="87" y="285" xlink:href="#a"/><use x="96" y="285" xlink:href="#a"/><use x="105" y="285" xlink:href="#a"/><use x="123" y="285" xlink:href="#a"/><use x="132" y="285" xlink:href="#a"/><use x="141" y="285" xlink:href="#a"/><use x="159" y="285" xlink:href="#a"/><use x="186" y="285" xlink:href="#a"/><use x="204" y="285" xlink:href="#a"/><use x="213" y="285" xlink:href="#a"/><use x="222" y="285" xlink:href="#a"/><use x="303" y="285" xlink:href="#a"/><use x="312" y="285" xlink:href="#a"/><use x="348" y="285" xlink:href="#a"/><use x="357" y="285" xlink:href="#a"/><use x="15" y="294" xlink:href="#a"/><use x="33" y="294" xlink:href="#a"/><use x="78" y="294" xlink:href="#a"/><use x="132" y="294" xlink:href="#a"/><use x="141" y="294" xlink:href="#a"/><use x="150" y="294" xlink:href="#a"/><use x="159" y="294" xlink:href="#a"/><use x="168" y="294" xlink:href="#a"/><use x="186" y="294" xlink:href="#a"/><use x="204" y="294" xlink:href="#a"/><use x="213" y="294" xlink:href="#a"/><use x="222" y="294" xlink:href="#a"/><use x="231" y="294" xlink:href="#a"/><use x="267" y="294" xlink:href="#a"/><use x="276" y="294" xlink:href="#a"/><use x="285" y="294" xlink:href="#a"/><use x="321" y="294" xlink:href="#a"/><use x="339" y="294" xlink:href="#a"/><use x="375" y="294" xlink:href="#a"/><use x="15" y="303" xlink:href="#a"/><use x="69" y="303" xlink:href="#a"/><use x="78" y="303" xlink:href="#a"/><use x="87" y="303" xlink:href="#a"/><use x="114" y="303" xlink:href="#a"/><use x="123" y="303" xlink:href="#a"/><use x="132" y="303" xlink:href="#a"/><use x="141" y="303" xlink:href="#a"/><use x="159" y="303" xlink:href="#a"/><use x="168" y="303" xlink:href="#a"/><use x="177" y="303" xlink:href="#a"/><use x="186" y="303" xlink:href="#a"/><use x="204" y="303" xlink:href="#a"/><use x="213" y="303" xlink:href="#a"/><use x="249" y="303" xlink:href="#a"/><use x="267" y="303" xlink:href="#a"/><use x="276" y="303" xlink:href="#a"/><use x="285" y="303" xlink:href="#a"/><use x="303" y="303" xlink:href="#a"/><use x="312" y="303" xlink:href="#a"/><use x="321" y="303" xlink:href="#a"/><use x="330" y="303" xlink:href="#a"/><use x="339" y="303" xlink:href="#a"/><use x="348" y="303" xlink:href="#a"/><use x="366" y="303" xlink:href="#a"/><use x="87" y="312" xlink:href="#a"/><use x="96" y="312" xlink:href="#a"/><use x="105" y="312" xlink:href="#a"/><use x="123" y="312" xlink:href="#a"/><use x="150" y="312" xlink:href="#a"/><use x="168" y="312" xlink:href="#a"/><use x="177" y="312" xlink:href="#a"/><use x="186" y="312" xlink:href="#a"/><use x="222" y="312" xlink:href="#a"/><use x="258" y="312" xlink:href="#a"/><use x="285" y="312" xlink:href="#a"/><use x="303" y="312" xlink:href="#a"/><use x="339" y="312" xlink:href="#a"/><use x="348" y="312" xlink:href="#a"/><use x="366" y="312" xlink:href="#a"/><use x="375" y="312" xlink:href="#a"/><use x="15" y="321" xlink:href="#a"/><use x="24" y="321" xlink:href="#a"/><use x="33" y="321" xlink:href="#a"/><use x="42" y="321" xlink:href="#a"/><use x="51" y="321" xlink:href="#a"/><use x="60" y="321" xlink:href="#a"/><use x="69" y="321" xlink:href="#a"/><use x="114" y="321" xlink:href="#a"/><use x="141" y="321" xlink:href="#a"/><use x="150" y="321" xlink:href="#a"/><use x="177" y="321" xlink:href="#a"/><use x="204" y="321" xlink:href="#a"/><use x="240" y="321" xlink:href="#a"/><use x="249" y="321" xlink:href="#a"/><use x="267" y="321" xlink:href="#a"/><use x="285" y="321" xlink:href="#a"/><use x="294" y="321" xlink:href="#a"/><use x="303" y="321" xlink:href="#a"/><use x="321" y="321" xlink:href="#a"/><use x="339" y="321" xlink:href="#a"/><use x="375" y="321" xlink:href="#a"/><use x="15" y="330" xlink:href="#a"/><use x="69" y="330" xlink:href="#a"/><use x="114" y="330" xlink:href="#a"/><use x="141" y="330" xlink:href="#a"/><use x="150" y="330" xlink:href="#a"/><use x="159" y="330" xlink:href="#a"/><use x="168" y="330" xlink:href="#a"/><use x="186" y="330" xlink:href="#a"/><use x="195" y="330" xlink:href="#a"/><use x="213" y="330" xlink:href="#a"/><use x="222" y="330" xlink:href="#a"/><use x="249" y="330" xlink:href="#a"/><use x="303" y="330" xlink:href="#a"/><use x="339" y="330" xlink:href="#a"/><use x="348" y="330" xlink:href="#a"/><use x="366" y="330" xlink:href="#a"/><use x="375" y="330" xlink:href="#a"/><use x="15" y="339" xlink:href="#a"/><use x="33" y="339" xlink:href="#a"/><use x="42" y="339" xlink:href="#a"/><use x="51" y="339" xlink:href="#a"/><use x="69" y="339" xlink:href="#a"/><use x="87" y="339" xlink:href="#a"/><use x="96" y="339" xlink:href="#a"/><use x="105" y="339" xlink:href="#a"/><use x="114" y="339" xlink:href="#a"/><use x="123" y="339" xlink:href="#a"/><use x="141" y="339" xlink:href="#a"/><use x="168" y="339" xlink:href="#a"/><use x="186" y="339" xlink:href="#a"/><use x="195" y="339" xlink:href="#a"/><use x="204" y="339" xlink:href="#a"/><use x="213" y="339" xlink:href="#a"/><use x="231" y="339" xlink:href="#a"/><use x="258" y="339" xlink:href="#a"/><use x="285" y="339" xlink:href="#a"/><use x="303" y="339" xlink:href="#a"/><use x="312" y="339" xlink:href="#a"/><use x="321" y="339" xlink:href="#a"/><use x="330" y="339" xlink:href="#a"/><use x="339" y="339" xlink:href="#a"/><use x="348" y="339" xlink:href="#a"/><use x="15" y="348" xlink:href="#a"/><use x="33" y="348" xlink:href="#a"/><use x="42" y="348" xlink:href="#a"/><use x="51" y="348" xlink:href="#a"/><use x="69" y="348" xlink:href="#a"/><use x="87" y="348" xlink:href="#a"/><use x="114" y="348" xlink:href="#a"/><use x="132" y="348" xlink:href="#a"/><use x="141" y="348" xlink:href="#a"/><use x="150" y="348" xlink:href="#a"/><use x="159" y="348" xlink:href="#a"/><use x="168" y="348" xlink:href="#a"/><use x="195" y="348" xlink:href="#a"/><use x="222" y="348" xlink:href="#a"/><use x="231" y="348" xlink:href="#a"/><use x="240" y="348" xlink:href="#a"/><use x="258" y="348" xlink:href="#a"/><use x="312" y="348" xlink:href="#a"/><use x="321" y="348" xlink:href="#a"/><use x="339" y="348" xlink:href="#a"/><use x="15" y="357" xlink:href="#a"/><use x="33" y="357" xlink:href="#a"/><use x="42" y="357" xlink:href="#a"/><use x="51" y="357" xlink:href="#a"/><use x="69" y="357" xlink:href="#a"/><use x="87" y="357" xlink:href="#a"/><use x="114" y="357" xlink:href="#a"/><use x="132" y="357" xlink:href="#a"/><use x="141" y="357" xlink:href="#a"/><use x="150" y="357" xlink:href="#a"/><use x="159" y="357" xlink:href="#a"/><use x="177" y="357" xlink:href="#a"/><use x="195" y="357" xlink:href="#a"/><use x="204" y="357" xlink:href="#a"/><use x="222" y="357" xlink:href="#a"/><use x="231" y="357" xlink:href="#a"/><use x="240" y="357" xlink:href="#a"/><use x="258" y="357" xlink:href="#a"/><use x="267" y="357" xlink:href="#a"/><use x="276" y="357" xlink:href="#a"/><use x="294" y="357" xlink:href="#a"/><use x="312" y="357" xlink:href="#a"/><use x="321" y="357" xlink:href="#a"/><use x="330" y="357" xlink:href="#a"/><use x="339" y="357" xlink:href="#a"/><use x="348" y="357" xlink:href="#a"/><use x="366" y="357" xlink:href="#a"/><use x="15" y="366" xlink:href="#a"/><use x="69" y="366" xlink:href="#a"/><use x="96" y="366" xlink:href="#a"/><use x="105" y="366" xlink:href="#a"/><use x="123" y="366" xlink:href="#a"/><use x="132" y="366" xlink:href="#a"/><use x="150" y="366" xlink:href="#a"/><use x="168" y="366" xlink:href="#a"/><use x="186" y="366" xlink:href="#a"/><use x="213" y="366" xlink:href="#a"/><use x="231" y="366" xlink:href="#a"/><use x="240" y="366" xlink:href="#a"/><use x="276" y="366" xlink:href="#a"/><use x="285" y="366" xlink:href="#a"/><use x="294" y="366" xlink:href="#a"/><use x="330" y="366" xlink:href="#a"/><use x="375" y="366" xlink:href="#a"/><use x="15" y="375" xlink:href="#a"/><use x="24" y="375" xlink:href="#a"/><use x="33" y="375" xlink:href="#a"/><use x="42" y="375" xlink:href="#a"/><use x="51" y="375" xlink:href="#a"/><use x="60" y="375" xlink:href="#a"/><use x="69" y="375" xlink:href="#a"/><use x="114" y="375" xlink:href="#a"/><use x="132" y="375" xlink:href="#a"/><use x="141" y="375" xlink:href="#a"/><use x="168" y="375" xlink:href="#a"/><use x="177" y="375" xlink:href="#a"/><use x="195" y="375" xlink:href="#a"/><use x="204" y="375" xlink:href="#a"/><use x="213" y="375" xlink:href="#a"/><use x="231" y="375" xlink:href="#a"/><use x="240" y="375" xlink:href="#a"/><use x="258" y="375" xlink:href="#a"/><use x="267" y="375" xlink:href="#a"/><use x="285" y="375" xlink:href="#a"/><use x="294" y="375" xlink:href="#a"/><use x="303" y="375" xlink:href="#a"/><use x="312" y="375" xlink:href="#a"/><use x="321" y="375" xlink:href="#a"/><use x="330" y="375" xlink:href="#a"/><use x="339" y="375" xlink:href="#a"/><use x="348" y="375" xlink:href="#a"/></svg>
